<?xml version="1.0" standalone="no"?>
<!DOCTYPE svg PUBLIC "-//W3C//DTD SVG 20010904//EN"
 "http://www.w3.org/TR/2001/REC-SVG-20010904/DTD/svg10.dtd">
<svg version="1.0" xmlns="http://www.w3.org/2000/svg"
 width="128.000000pt" height="128.000000pt" viewBox="0 0 128.000000 128.000000"
 preserveAspectRatio="xMidYMid meet">
<metadata>
Created by potrace 1.14, written by Peter Selinger 2001-2017
</metadata>
<g transform="translate(0.000000,128.000000) scale(0.100000,-0.100000)"
fill="#000000" stroke="none">
<path d="M1067 1243 c-13 -13 -6 -28 18 -39 20 -10 27 -9 37 3 10 12 9 18 -7
29 -20 15 -38 18 -48 7z"/>
<path d="M599 1229 c-103 -14 -245 -74 -296 -124 -7 -7 -23 -22 -36 -32 -38
-30 -108 -125 -132 -178 -44 -97 -55 -142 -59 -245 -12 -272 175 -525 444
-599 307 -85 633 92 732 399 39 121 31 303 -17 407 -8 17 -15 34 -15 38 0 5
-17 33 -37 63 -130 197 -356 301 -584 271z"/>
<path d="M973 1230 c-42 -17 -23 -45 22 -34 16 4 25 13 25 25 0 21 -12 23 -47
9z"/>
<path d="M1100 1141 c-16 -30 -12 -51 9 -51 12 0 21 9 25 25 11 43 -14 62 -34
26z"/>
<path d="M81 390 c-11 -6 -9 -10 8 -19 17 -10 21 -9 21 3 0 20 -13 27 -29 16z"/>
<path d="M35 309 c-14 -27 -14 -30 1 -36 17 -6 44 20 44 43 0 27 -30 23 -45
-7z"/>
<path d="M0 196 c0 -38 12 -53 27 -33 18 23 21 55 6 61 -27 11 -33 6 -33 -28z"/>
<path d="M176 175 c-20 -15 -14 -35 13 -35 20 0 41 19 41 37 0 17 -30 16 -54
-2z"/>
<path d="M60 130 c0 -18 5 -21 33 -18 44 4 44 32 0 36 -28 3 -33 0 -33 -18z"/>
</g>
</svg>
